FILE "psxeg.bin" BINARY
  TRACK 01 MODE2/2352
    INDEX 01 00:00:00
  TRACK 02 AUDIO
    INDEX 00 00:15:18
    INDEX 01 00:17:18
  TRACK 03 AUDIO
    INDEX 00 04:37:74
    INDEX 01 04:39:74
